# xmcd
#
# Track frame offsets: 
#        150
#        11602
#        20352
#        31667
#        42917
#        54165
#        67400
#        79852
#        94467
#        104707
#        116270
#        129190
#        141640
#        153727
#        166180
#        178007
#        187137
#        199235
#        209962
#        220757
#        231942
#        241370
#        253660
#        264052
#        276970
#        287412
#
# Disc length: 3947 seconds
#
# Revision: 3
# Processed by: cddbd v1.5.2PL0 Copyright (c) Steve Scherf et al.
# Submitted via: ExactAudioCopy v1.0b3
#
DISCID=860f691a
DTITLE=The Osborne Brothers - The Osborne Bros. 1956-68_CD04
DYEAR=1995
DGENRE=Bluegrass
TTITLE0=Lonesome Feelin'
TTITLE1=World Of Unwanted
TTITLE2=Hard Times
TTITLE3=I'm Leavin'
TTITLE4=The Kind Of Woman I Got
TTITLE5=One Kiss Away From Loneliness
TTITLE6=Let's Say Goodbye Like We Said Hello
TTITLE7=Someone Before Me
TTITLE8=Walking The Floor Over You
TTITLE9=Roll Muddy River
TTITLE10=My Favorite Memory
TTITLE11=Gal You Got A Job To Do
TTITLE12=Ruby Are You Mad-
TTITLE13=My Favorite Memory
TTITLE14=Rocky Top
TTITLE15=When You Wind Down
TTITLE16=Foggy Montain Breakdwon
TTITLE17=Foggy Mountain Breakdown (Reprise)
TTITLE18=The Sisters
TTITLE19=A-Model
TTITLE20=Lonesome Road Blues
TTITLE21=Jessie James
TTITLE22=Maiden's Prayer
TTITLE23=John Hardy
TTITLE24=Little Willie
TTITLE25=Hand Me Down My Walkin' Cane
EXTD=
EXTT0=
EXTT1=
EXTT2=
EXTT3=
EXTT4=
EXTT5=
EXTT6=
EXTT7=
EXTT8=
EXTT9=
EXTT10=
EXTT11=
EXTT12=
EXTT13=
EXTT14=
EXTT15=
EXTT16=
EXTT17=
EXTT18=
EXTT19=
EXTT20=
EXTT21=
EXTT22=
EXTT23=
EXTT24=
EXTT25=
PLAYORDER=
